<svg xmlns="http://www.w3.org/2000/svg" width="1375" height="237" fill="none"><path fill="#FA242E" d="M507.459 230.029V88.189l108.22 141.84h51.756V3.484H616.26v142.671L508.319 3.485h-51.745v226.544h50.885Zm714.901-5.922c15.09 7.844 33.28 11.828 54.06 11.828s38.22-3.984 52.94-11.828c14.74-7.876 26.16-19.412 33.93-34.285 7.73-14.84 11.66-32.725 11.66-53.183V4.512h-51.48v131.844c0 15.605-4.3 27.884-12.78 36.48-8.49 8.587-20.49 12.949-35.69 12.949-15.19 0-27.14-4.35-35.53-12.937-8.39-8.598-12.65-20.877-12.65-36.48V4.523h-51.48V136.65c0 20.458 4.07 38.354 12.1 53.195 8.05 14.872 19.8 26.409 34.92 34.284v-.021Zm-273.498-26.785v34.9h197.328v-46.729h-121.83l125.53-152.94V4.512H720.977v46.73h82.889v180.98h51.482V51.242h217.012l-123.498 146.08ZM145.657 9.084C131.541 3.055 115.162 0 96.991 0 78.82 0 62.495 2.909 49.04 8.655c-13.53 5.777-24.07 14.223-31.315 25.108C10.469 44.658 6.788 57.604 6.788 72.225c0 17.53 4.188 31.178 12.44 40.576 8.21 9.357 18.192 15.761 29.655 19.037 11.33 3.244 25.947 5.945 43.432 8.029 11.611 1.517 20.629 2.95 26.806 4.27 6.034 1.296 11.164 3.58 15.258 6.791 4.002 3.141 5.941 7.389 5.941 12.989 0 7.859-3.4 13.919-10.397 18.503-7.05 4.626-17.176 6.96-30.103 6.96-12.925 0-23.674-3.182-30.982-9.45-7.37-6.321-11.132-14.841-11.496-26.05l-.031-1.067H0v1.098c0 16.902 4.197 31.817 12.49 44.323 8.282 12.497 20.007 22.199 34.84 28.813C62.11 233.65 79.39 237 98.692 237c19.301 0 36.009-3.108 50.22-9.23 14.274-6.155 25.376-14.884 33.004-25.957 7.64-11.082 11.518-24.133 11.518-38.764 0-17.532-4.137-31.137-12.294-40.441-8.116-9.263-18.006-15.615-29.377-18.891-11.226-3.234-25.799-5.945-43.328-8.038-11.61-1.319-20.805-2.71-27.334-4.124-6.407-1.38-11.725-3.757-15.82-7.064-4.01-3.234-5.96-7.723-5.96-13.71 0-7.474 3.07-13.052 9.392-17.06 6.395-4.06 15.622-6.11 27.428-6.11 11.806 0 20.784 2.563 27.346 7.628 6.591 5.087 10.157 11.974 10.892 21.067l.084 1.016h56.42v-1.1c0-15.582-4.011-29.292-11.941-40.764-7.909-11.45-19.114-20.324-33.294-26.374h.009Zm176.587 175.939c-15.123 0-27.016-4.357-35.367-12.968-8.352-8.609-12.589-20.896-12.589-36.533V3.484h-51.229v132.321c0 20.488 4.05 38.408 12.04 53.271 8.008 14.906 19.703 26.447 34.764 34.334 15.02 7.856 33.124 11.846 53.804 11.846 20.681 0 38.038-3.99 52.682-11.846 14.689-7.887 26.04-19.44 33.77-34.334 7.706-14.863 11.601-32.773 11.601-53.25V3.506h-51.229v132.037c0 15.628-4.28 27.925-12.722 36.534-8.445 8.599-20.39 12.968-35.513 12.968l-.012-.022Z"/></svg>